<svg width="102" height="171" fill="none" xmlns="http://www.w3.org/2000/svg"><path fill-rule="evenodd" clip-rule="evenodd" d="M50.548 59.367l4.032-13.722-.412-.412 9.303 9.307a6.826 6.826 0 010 9.655L50.548 77.123 37.626 64.195a6.826 6.826 0 010-9.655l12.922-12.928v17.755zm3.041-20.803L66.51 51.492a6.819 6.819 0 009.65 0l12.923-12.928-12.922-12.929a6.819 6.819 0 00-9.65 0l-8.887 8.89 13.716 4.039H53.589zm-3.246-3.254l.205.206-.205-.206zm-3.83-3.83l4.036-13.72v17.751L63.47 22.583a6.826 6.826 0 000-9.654L50.548 0 37.626 12.933a6.826 6.826 0 000 9.654l8.888 8.893zm.986 7.084l.002-.002.003-.003-12.924-12.93a6.827 6.827 0 00-9.653 0L12 38.562l12.924 12.93a6.827 6.827 0 009.653 0l9.432-9.437-.542.542-13.712-4.033h17.744z" fill="#fff"/><path d="M37.623 64.194l12.922 12.929V41.607L37.623 54.535a6.826 6.826 0 000 9.655v.004zm25.849-41.606L50.55 35.516V0l12.922 12.93a6.826 6.826 0 010 9.654v.005zm3.045 28.904L53.595 38.564h35.5L76.171 51.492a6.819 6.819 0 01-9.65 0h-.005zM24.925 25.63L12.003 38.565h35.5L34.58 25.635a6.819 6.819 0 00-9.65 0l-.005-.004zm46.29-11.95l-2.757 3.773a.524.524 0 00.423.832h5.514a.524.524 0 00.422-.832L72.06 13.68a.523.523 0 00-.845 0zM29.656 63.195l2.757-3.772a.524.524 0 00-.422-.833h-5.515a.524.524 0 00-.422.833l2.757 3.772c.21.286.637.287.845 0z" fill="#fff"/><path fill-rule="evenodd" clip-rule="evenodd" d="M30.83 15.01l-.91-1.244a.523.523 0 00-.845 0l-.909 1.244h2.664zm-3.314.89h3.964l1.198 1.638a.524.524 0 01-.423.833h-5.514a.524.524 0 01-.423-.833l1.198-1.639zm45.586 46.267l-.91 1.244a.523.523 0 01-.844 0l-.91-1.244h2.664zm.65-.89h-3.963l-1.198-1.639a.524.524 0 01.422-.832h5.514c.428 0 .675.486.423.832l-1.199 1.64z" fill="#fff"/><path d="M37 166.584v-19.328h1.667c1.75 0 3.17 1.42 3.17 3.171v19.328H40.17a3.172 3.172 0 01-3.17-3.171zm23.163-19.329h1.731c1.75 0 3.17 1.421 3.17 3.172v19.696h-.672l-12.42-12.668v12.3h-1.668a3.172 3.172 0 01-3.17-3.172v-19.727h.672l12.357 12.636v-12.243.006zm-28.813-5.987l-.774-1.896h-7.76l-.799 1.915a3.173 3.173 0 01-2.923 1.948H16l10.443-22.9h.64l10.41 22.9h-3.201a3.174 3.174 0 01-2.936-1.973l-.006.006zm-2.143-5.823l-2.555-6.185-2.524 6.185h5.085-.006zm28.576 7.79h-4.096a3.16 3.16 0 01-2.65-1.434l-5.846-8.95v10.384h-4.87v-19.328a3.172 3.172 0 013.17-3.172h5.11c5.327 0 8.674 2.22 8.674 7.003 0 3.438-2.13 5.785-5.87 6.546l6.39 8.951h-.012zm-12.599-12.122H47.5c3.284 0 4.748-.945 4.748-3.077 0-2.011-1.248-3.013-4.14-3.013h-2.923v6.09zm20.384 8.95v-14.976h-3.069a3.172 3.172 0 01-3.17-3.172v-1.18h14.177c1.75 0 3.17 1.421 3.17 3.172v1.18h-6.239v18.148h-1.699a3.172 3.172 0 01-3.17-3.172zm12.85-3.644l-4.097 5.607a.778.778 0 00.628 1.237h8.195a.778.778 0 00.628-1.237l-4.098-5.607a.778.778 0 00-1.256 0zM.995 110.393l.8-1.008c1.946 1.858 3.867 2.62 5.934 2.62 2.314 0 3.5-.946 3.5-2.405 0-4.078-11.229-.913-11.229-9.534 0-4.11 3.284-7.034 8.464-7.034 1.58 0 2.942.266 4.115.71 1.978.749 2.65 3.21 1.364 4.89l-.635.832c-1.337-1.218-2.77-1.98-4.837-1.98-2.372 0-3.589 1.003-3.589 2.437 0 3.869 11.26 1.37 11.26 9.254 0 4.479-3.347 7.276-8.464 7.276-2.276 0-4.096-.501-5.58-1.243-1.806-.901-2.339-3.229-1.09-4.815H.995zm17.866-5.607c0-7.98 6.055-11.786 11.597-11.786 5.541 0 11.749 3.806 11.749 11.786 0 7.98-6.182 11.691-11.75 11.691-5.566 0-11.596-3.895-11.596-11.691zm18.324 0c0-4.935-3.468-7.098-6.727-7.098-3.26 0-6.575 2.163-6.575 7.098 0 4.935 3.284 6.971 6.575 6.971 3.29 0 6.727-2.22 6.727-6.971zm31.534 11.208h-2.105a3.175 3.175 0 01-3.133-2.67l-1.28-8.018-3.9 7.384c-.767 1.446-2.84 1.446-3.601-.007l-3.887-7.44-1.306 8.081a3.17 3.17 0 01-3.132 2.664h-2.111l4.14-22.9h.672l7.425 15.015 7.456-15.014h.672l4.077 22.899.013.006zm8.457-4.389h6.385c1.75 0 3.17 1.421 3.17 3.172v1.211H72.396v-22.5h14v1.18a3.173 3.173 0 01-3.171 3.172H77.17v4.383h8.769v4.263h-8.77v5.113l.007.006zm17.932-2.524l-4.098 5.607a.778.778 0 00.628 1.237h8.195a.778.778 0 00.628-1.237l-4.097-5.607a.778.778 0 00-1.256 0z" fill="#fff"/></svg>