<svg width="138" height="52" fill="none" xmlns="http://www.w3.org/2000/svg"><path fill-rule="evenodd" clip-rule="evenodd" d="M26.83 40.028l2.719-9.252-.295-.296 6.29 6.293a4.603 4.603 0 010 6.51L26.83 52l-8.713-8.717a4.603 4.603 0 010-6.51l8.712-8.716v11.971zm4.772-16.749l9.248 2.722H28.88l8.714 8.717a4.597 4.597 0 006.506 0l8.713-8.717-8.713-8.717a4.598 4.598 0 00-6.506 0l-5.992 5.995zm-4.772.665l8.714-8.717a4.603 4.603 0 000-6.51L26.83 0l-8.713 8.72a4.603 4.603 0 000 6.51l5.992 5.995 2.72-9.25v11.969zm-2.055 2.057h.001l.002-.003-8.714-8.718a4.603 4.603 0 00-6.508 0L.84 26l8.714 8.718a4.603 4.603 0 006.508 0l6.488-6.49-.494.493-9.245-2.72h11.964z" fill="#fff"/><path d="M18.116 43.283L26.829 52V28.053l-8.713 8.717a4.603 4.603 0 000 6.51v.003zM35.544 15.23l-8.713 8.717V0l8.713 8.717a4.603 4.603 0 010 6.51v.003zm2.054 19.488l-8.713-8.717H52.82l-8.713 8.717a4.597 4.597 0 01-6.506 0h-.003zM9.555 17.282l-8.713 8.72h23.935l-8.713-8.718a4.597 4.597 0 00-6.506 0l-.003-.002zm31.21-8.058l-1.859 2.543a.353.353 0 00.285.562h3.718a.353.353 0 00.285-.562l-1.86-2.543a.353.353 0 00-.569 0zM12.744 42.61l1.859-2.544a.353.353 0 00-.285-.562H10.6a.353.353 0 00-.285.562l1.86 2.543c.14.193.428.194.569 0z" fill="#fff"/><path fill-rule="evenodd" clip-rule="evenodd" d="M13.536 10.12l-.613-.839a.353.353 0 00-.57 0l-.613.84h1.796zm-2.234.6h2.672l.808 1.105a.353.353 0 01-.285.562H10.78a.353.353 0 01-.285-.562l.808-1.105zm30.736 31.196l-.613.839a.353.353 0 01-.57 0l-.613-.84h1.796zm.438-.6h-2.673l-.807-1.105a.353.353 0 01.285-.562h3.718c.288 0 .455.328.285.562l-.808 1.105z" fill="#fff"/><path d="M69.268 11.727l.538-.68c1.313 1.253 2.608 1.767 4.002 1.767 1.56 0 2.36-.638 2.36-1.621 0-2.75-7.571-.616-7.571-6.428 0-2.772 2.214-4.744 5.707-4.744 1.064 0 1.983.18 2.774.48 1.334.504 1.787 2.164.92 3.297l-.428.56c-.902-.821-1.868-1.334-3.262-1.334-1.599 0-2.42.676-2.42 1.642 0 2.61 7.593.924 7.593 6.24 0 3.02-2.257 4.906-5.707 4.906-1.535 0-2.762-.338-3.762-.838a2.145 2.145 0 01-.736-3.247h-.008zm12.046-3.78c0-5.38 4.083-7.947 7.82-7.947 3.736 0 7.92 2.566 7.92 7.947 0 5.38-4.167 7.882-7.92 7.882-3.754 0-7.82-2.626-7.82-7.882zm12.355 0c0-3.328-2.338-4.786-4.536-4.786-2.197 0-4.433 1.458-4.433 4.786 0 3.327 2.215 4.7 4.433 4.7 2.22 0 4.536-1.497 4.536-4.7zm21.261 7.557h-1.419a2.14 2.14 0 01-2.112-1.8l-.864-5.407-2.629 4.979c-.517.975-1.915.975-2.428-.005l-2.621-5.016-.88 5.448a2.137 2.137 0 01-2.112 1.797h-1.424L101.233.06h.453l5.006 10.123L111.719.06h.454l2.748 15.44.009.004zm5.703-2.96h4.304a2.14 2.14 0 012.138 2.139v.817h-9.666V.33h9.439v.795c0 1.18-.957 2.138-2.137 2.138h-4.083V6.22h5.913v2.874h-5.913v3.447l.005.004zM78.252 32.545l-.521-1.279h-5.233l-.539 1.292a2.14 2.14 0 01-1.97 1.313h-2.087l7.041-15.44h.432l7.02 15.44h-2.16a2.14 2.14 0 01-1.979-1.33l-.004.004zm-1.445-3.927l-1.723-4.17-1.701 4.17h3.428-.004zm19.267 5.252h-2.762a2.131 2.131 0 01-1.787-.966l-3.941-6.035v7.002h-3.283V20.839c0-1.18.957-2.139 2.137-2.139h3.446c3.59 0 5.848 1.497 5.848 4.722 0 2.318-1.436 3.9-3.959 4.414l4.31 6.035h-.009zm-8.494-8.173h1.56c2.215 0 3.202-.637 3.202-2.074 0-1.356-.842-2.032-2.792-2.032h-1.97v4.106zm13.744 6.035V21.634h-2.07a2.139 2.139 0 01-2.137-2.138V18.7h9.559a2.14 2.14 0 012.138 2.139v.795h-4.207v12.237h-1.146a2.138 2.138 0 01-2.137-2.139zM67.895 49.614V36.582h1.125c1.18 0 2.137.958 2.137 2.138v13.032h-1.124a2.139 2.139 0 01-2.138-2.139zm15.619-13.033h1.167c1.18 0 2.137.959 2.137 2.139V52h-.453l-8.375-8.541v8.293h-1.124a2.139 2.139 0 01-2.138-2.139v-13.3h.454l8.332 8.519v-8.255.005zm26.473-7.306l-2.763 3.78a.525.525 0 00.424.835h5.525a.525.525 0 00.423-.834l-2.762-3.78a.524.524 0 00-.847 0zm22.735-18.432l-2.762 3.78a.525.525 0 00.423.834h5.525a.525.525 0 00.424-.834l-2.763-3.78a.524.524 0 00-.847 0z" fill="#fff"/></svg>