<svg xmlns="http://www.w3.org/2000/svg" width="167" height="167" fill="none"><path fill-rule="evenodd" clip-rule="evenodd" d="M83.298 128.283l8.712-29.652 19.212 19.221c5.762 5.765 5.762 15.098 0 20.863l-27.924 27.936-27.924-27.936c-5.761-5.765-5.761-15.098 0-20.863l27.924-27.936v38.367zm34.495-72.889L89.869 83.33l8.72-8.725 29.639 8.725H89.869l27.924 27.937c5.761 5.764 15.091 5.764 20.852 0l27.924-27.937-27.924-27.936c-5.761-5.765-15.091-5.765-20.852 0zm-34.496 21.35h.001v-.008l27.924-27.937c5.762-5.764 5.762-15.098 0-20.862L83.298 0 55.374 27.946c-5.761 5.764-5.761 15.098 0 20.862L74.58 68.021l8.718-29.644v38.367zm-6.589 6.586l.004-.004.006-.006-27.926-27.94c-5.756-5.759-15.104-5.759-20.86 0L0 83.326l27.926 27.939c5.756 5.759 15.104 5.759 20.86 0l19.752-19.76-.543.541-29.629-8.716h38.342z" fill="#fff"/><path d="M55.366 138.714l27.923 27.937V89.906l-27.923 27.937c-5.762 5.764-5.762 15.098 0 20.862v.009zm55.857-89.906L83.3 76.745V0l27.923 27.937c5.762 5.764 5.762 15.098 0 20.862v.01zm6.582 62.459L89.881 83.33h76.71l-27.924 27.937c-5.762 5.764-15.091 5.764-20.853 0h-.009zM27.93 55.384L.006 83.33h76.71L48.792 55.394c-5.762-5.765-15.091-5.765-20.853 0l-.009-.01zm100.027-25.823l-5.958 8.152c-.545.748-.012 1.8.913 1.8h11.915c.925 0 1.458-1.052.913-1.8l-5.957-8.152a1.13 1.13 0 00-1.826 0zM38.153 136.555l5.957-8.152c.545-.748.012-1.799-.913-1.799H31.282c-.925 0-1.458 1.051-.913 1.799l5.958 8.152a1.13 1.13 0 001.826 0z" fill="#fff"/><path fill-rule="evenodd" clip-rule="evenodd" d="M40.688 32.434l-1.964-2.688a1.13 1.13 0 00-1.826 0l-1.965 2.688h5.755zm-7.16 1.921h8.565l2.588 3.542c.545.749.013 1.8-.913 1.8H31.853c-.925 0-1.458-1.051-.913-1.8l2.589-3.542zm98.501 99.979l-1.964 2.687a1.13 1.13 0 01-1.826 0l-1.964-2.687h5.754zm1.405-1.922h-8.563l-2.589-3.543c-.545-.748-.013-1.799.913-1.799h11.915c.925 0 1.458 1.051.913 1.799l-2.589 3.543z" fill="#fff"/></svg>