<svg xmlns="http://www.w3.org/2000/svg" width="31" height="30" fill="none"><path d="M21.767 14.044a7.81 7.81 0 00-.344-.155c-.201-3.725-2.236-5.857-5.654-5.879h-.046c-2.045 0-3.744.873-4.79 2.46l1.879 1.29c.782-1.185 2.008-1.44 2.912-1.44h.031c1.125.008 1.974.335 2.523.973.4.465.667 1.106.8 1.916a14.355 14.355 0 00-3.23-.155c-3.249.187-5.337 2.081-5.198 4.715.071 1.335.737 2.485 1.874 3.235.962.634 2.199.945 3.486.874 1.7-.093 3.032-.742 3.962-1.927.707-.9 1.153-2.066 1.35-3.537.81.489 1.41 1.133 1.742 1.906.563 1.313.596 3.474-1.166 5.234-1.544 1.543-3.4 2.21-6.204 2.23-3.111-.023-5.464-1.02-6.994-2.965-1.432-1.82-2.173-4.451-2.2-7.817.027-3.366.768-5.997 2.2-7.818 1.53-1.945 3.883-2.942 6.994-2.965 3.133.023 5.527 1.026 7.115 2.98.779.959 1.365 2.163 1.753 3.568l2.202-.588c-.469-1.73-1.207-3.22-2.212-4.456-2.035-2.505-5.014-3.788-8.85-3.816h-.015c-3.83.026-6.774 1.315-8.752 3.83-1.76 2.238-2.669 5.352-2.699 9.254v.019c.03 3.903.938 7.017 2.7 9.253 1.977 2.515 4.921 3.803 8.751 3.83h.015c3.404-.023 5.803-.915 7.78-2.89 2.587-2.584 2.509-5.822 1.657-7.81-.611-1.426-1.778-2.584-3.372-3.349zm-5.878 5.526c-1.424.08-2.904-.559-2.976-1.928-.055-1.015.723-2.148 3.063-2.283.269-.015.53-.023.79-.023.85 0 1.646.083 2.369.24-.27 3.368-1.852 3.915-3.246 3.992v.002z" fill="#fff"/></svg>