<svg xmlns="http://www.w3.org/2000/svg" width="31" height="30" fill="none"><path d="M17.687 4.06h-4.374c-4.21 0-7.655 3.445-7.655 7.655v3.28a7.683 7.683 0 004.374 6.917v3.664c0 .328.41.492.63.245l3.17-3.17h3.855c4.21 0 7.655-3.445 7.655-7.655v-3.281c0-4.21-3.445-7.655-7.655-7.655zm2.87 14.353l-1.12 1.093c-1.176 1.149-4.21-.164-6.89-2.898-2.679-2.733-3.854-5.795-2.733-6.944l1.093-1.093c.41-.41 1.094-.383 1.559.027l1.585 1.64c.574.575.328 1.559-.41 1.778-.52.164-.875.738-.71 1.257.273 1.203 1.804 2.734 2.952 3.035.52.11 1.093-.164 1.285-.684.246-.738 1.23-.957 1.777-.383l1.585 1.64c.438.384.438 1.067.028 1.532zm-4.073-9.159c-.11 0-.219 0-.328.028-.191.027-.383-.137-.41-.328-.027-.192.137-.383.328-.41.137-.028.273-.028.41-.028a3.652 3.652 0 013.636 3.636c0 .137 0 .274-.027.41-.027.192-.219.356-.41.328-.192-.027-.356-.218-.328-.41 0-.109.027-.218.027-.328.027-1.585-1.285-2.898-2.898-2.898zm2.187 2.926a.362.362 0 01-.355.355.362.362 0 01-.355-.355 1.46 1.46 0 00-1.45-1.45.362.362 0 01-.355-.355c0-.191.164-.355.356-.355 1.175-.027 2.16.957 2.16 2.16zm2.789 1.175a.383.383 0 01-.465.274.351.351 0 01-.246-.438c.082-.328.11-.656.11-1.011a4.387 4.387 0 00-4.375-4.375h-.328c-.191 0-.383-.136-.383-.328 0-.191.137-.382.329-.382.136 0 .273-.028.382-.028a5.122 5.122 0 015.112 5.113c0 .382-.054.792-.136 1.175z" fill="#fff"/></svg>